# Blender 4.1.1
# www.blender.org
mtllib shadows.mtl
o SHADOWS
v -0.000000 0.847383 -5.332694
v -0.195091 0.830078 -5.324343
v -0.382684 0.778827 -5.299613
v -0.555571 0.695600 -5.259452
v -0.707107 0.583595 -5.205405
v -0.831470 0.447117 -5.139548
v -0.923880 0.291410 -5.064413
v -0.980786 0.122459 -4.982887
v -1.000000 -0.053245 -4.898102
v -0.980786 -0.228948 -4.813318
v -0.923880 -0.397900 -4.731791
v -0.831470 -0.553607 -4.656656
v -0.707107 -0.690084 -4.590800
v -0.555571 -0.802089 -4.536753
v -0.382684 -0.885316 -4.496592
v -0.195091 -0.936567 -4.471861
v -0.000000 -0.953872 -4.463511
v 0.195090 -0.936567 -4.471861
v 0.382683 -0.885316 -4.496592
v 0.555570 -0.802089 -4.536753
v 0.707106 -0.690084 -4.590800
v 0.831469 -0.553607 -4.656656
v 0.923879 -0.397900 -4.731791
v 0.980785 -0.228948 -4.813318
v 1.000000 -0.053245 -4.898102
v 0.980785 0.122459 -4.982887
v 0.923879 0.291410 -5.064413
v 0.831469 0.447117 -5.139548
v 0.707106 0.583595 -5.205405
v 0.555570 0.695600 -5.259452
v 0.382683 0.778827 -5.299613
v 0.195090 0.830078 -5.324343
v 0.226790 -26.876970 -108.746063
v -3.486600 -27.206364 -108.587135
v -7.057287 -28.181885 -108.116402
v -10.348048 -29.766048 -107.351967
v -13.232427 -31.897968 -106.323227
v -15.599575 -34.495720 -105.069702
v -17.358522 -37.459476 -103.639565
v -18.441679 -40.675331 -102.087769
v -18.807419 -44.019711 -100.473969
v -18.441679 -47.364094 -98.860161
v -17.358522 -50.579952 -97.308380
v -15.599575 -53.543705 -95.878235
v -13.232427 -56.141457 -94.624710
v -10.348048 -58.273376 -93.595970
v -7.057287 -59.857533 -92.831535
v -3.486600 -60.833054 -92.360809
v 0.226790 -61.162449 -92.201859
v 3.940180 -60.833054 -92.360809
v 7.510867 -59.857533 -92.831535
v 10.801632 -58.273376 -93.595970
v 13.686008 -56.141457 -94.624710
v 16.053156 -53.543705 -95.878235
v 17.812107 -50.579952 -97.308380
v 18.895262 -47.364094 -98.860161
v 19.261000 -44.019711 -100.473969
v 18.895262 -40.675331 -102.087769
v 17.812107 -37.459476 -103.639565
v 16.053156 -34.495720 -105.069702
v 13.686008 -31.897968 -106.323227
v 10.801632 -29.766048 -107.351967
v 7.510867 -28.181885 -108.116402
v 3.940180 -27.206364 -108.587135
v -4.397084 0.528074 -1.338624
v -4.397084 -1.471926 -1.338624
v -3.514624 -1.471926 0.456164
v -6.191872 0.528074 -0.456164
v -5.309412 0.528074 1.338624
v -5.309412 -1.471926 1.338624
v -96.202522 -38.347153 -37.776379
v -96.202522 -82.224342 -37.776379
v -76.842583 -82.224342 1.598747
v -135.577637 -38.347153 -18.416454
v -116.217712 -38.347153 20.958679
v -116.217712 -82.224342 20.958679
v 4.775729 -1.000000 -1.000000
v 4.970819 -1.000000 0.980785
v 4.775729 -1.000000 1.000000
v 4.580639 -1.000000 0.980785
v 4.393046 -1.000000 0.923880
v 4.220159 -1.000000 0.831470
v 4.068623 -1.000000 0.707107
v 3.944260 -1.000000 0.555570
v 3.851850 -1.000000 0.382683
v 3.794944 -1.000000 0.195090
v 3.775729 -1.000000 0.000000
v 3.794944 -1.000000 -0.195090
v 3.851850 -1.000000 -0.382683
v 3.944260 -1.000000 -0.555570
v 4.068623 -1.000000 -0.707107
v 4.220159 -1.000000 -0.831470
v 4.393046 -1.000000 -0.923880
v 4.580639 -1.000000 -0.980785
v 4.775729 1.000000 0.000000
v 25.525970 -15.667697 -7.073851
v 26.566490 -15.667697 3.490716
v 25.525970 -15.667697 3.593199
v 24.485451 -15.667697 3.490716
v 23.484921 -15.667697 3.187209
v 22.562824 -15.667697 2.694338
v 21.754601 -15.667697 2.031045
v 21.091309 -15.667697 1.222822
v 20.598434 -15.667697 0.300725
v 20.294926 -15.667697 -0.699807
v 20.192444 -15.667697 -1.740326
v 20.294926 -15.667697 -2.780845
v 20.598434 -15.667697 -3.781378
v 21.091309 -15.667697 -4.703474
v 21.754601 -15.667697 -5.511697
v 22.562824 -15.667697 -6.174990
v 23.484921 -15.667697 -6.667861
v 24.485451 -15.667697 -6.971369
v 25.525970 -5.000647 -1.740326
v 1.249907 -0.003271 4.480052
v 1.239231 -0.068370 4.333860
v 1.207350 -0.132340 4.190165
v 1.154809 -0.194087 4.051425
v 1.082508 -0.252555 3.920015
v 0.991683 -0.306742 3.798183
v 0.883888 -0.355722 3.688013
v 0.760968 -0.398657 3.591390
v 0.625026 -0.434811 3.509969
v 0.478389 -0.463567 3.445141
v 0.323564 -0.484432 3.398016
v 0.163201 -0.497050 3.369401
v 0.000045 -0.501204 3.359787
v -0.163114 -0.496823 3.369334
v -0.323484 -0.483983 3.397882
v -0.478320 -0.462902 3.444942
v -0.624974 -0.433943 3.509708
v -0.760936 -0.397599 3.591073
v -0.883880 -0.354494 3.687644
v -0.991702 -0.305364 3.797768
v -1.082557 -0.251051 3.919563
v -1.154891 -0.192483 4.050943
v -1.207466 -0.130663 4.189662
v -1.239382 -0.066648 4.333343
v -1.250094 -0.001534 4.479531
v -1.239418 0.063566 4.625723
v -1.207537 0.127536 4.769418
v -1.154997 0.189283 4.908158
v -1.082695 0.247751 5.039568
v -0.991870 0.301938 5.161401
v -0.884076 0.350918 5.271571
v -0.761156 0.393852 5.368193
v -0.625214 0.430007 5.449615
v -0.478576 0.458763 5.514442
v -0.323752 0.479628 5.561567
v -0.163390 0.492245 5.590181
v -0.000232 0.496399 5.599798
v 0.162926 0.492019 5.590250
v 0.323296 0.479178 5.561702
v 0.478133 0.458098 5.514642
v 0.624786 0.429138 5.449875
v 0.760748 0.392795 5.368511
v 0.883692 0.349690 5.271941
v 0.991514 0.300560 5.161815
v 1.082369 0.246246 5.040020
v 1.154703 0.187679 4.908640
v 1.207278 0.125858 4.769923
v 1.239195 0.061844 4.626240
v 0.757146 -0.018382 4.445249
v 0.750925 -0.051251 4.371436
v 0.658409 -0.144717 4.161402
v 0.604290 -0.172475 4.098979
v 0.383030 -0.238799 3.949666
v 0.293605 -0.253849 3.915714
v -0.000016 -0.273603 3.870840
v -0.100366 -0.271258 3.875926
v -0.383194 -0.238118 3.949839
v -0.465748 -0.219134 3.992320
v -0.658929 -0.143547 4.161700
v -0.701876 -0.113679 4.228690
v -0.758142 -0.017036 4.445591
v -0.751922 0.015832 4.519406
v -0.659406 0.109299 4.729438
v -0.605286 0.137057 4.791862
v -0.384026 0.203380 4.941175
v -0.294601 0.218431 4.975128
v -0.000980 0.238184 5.020002
v 0.099370 0.235840 5.014914
v 0.382198 0.202700 4.941002
v 0.464751 0.183716 4.898522
v 0.657933 0.108129 4.729141
v 0.700880 0.078261 4.662152
v 0.701244 -0.114925 4.228373
v 0.465512 -0.219961 3.992109
v 0.100325 -0.271436 3.875882
v -0.293712 -0.253327 3.915846
v -0.604705 -0.171402 4.099252
v -0.751798 -0.049916 4.371774
v -0.702240 0.079507 4.662467
v -0.466509 0.184543 4.898732
v -0.101323 0.236018 5.014960
v 0.292716 0.217909 4.974995
v 0.603709 0.135983 4.791589
v 0.750802 0.014498 4.519066
v 0.732215 -0.083601 4.298764
v 0.539663 -0.197711 4.042200
v 0.198801 -0.264805 3.890946
v -0.198867 -0.264451 3.891037
v -0.539983 -0.196752 4.042444
v -0.732965 -0.082300 4.299094
v -0.733211 0.048183 4.592078
v -0.540659 0.162293 4.848641
v -0.199798 0.229386 4.999895
v 0.197870 0.229033 4.999805
v 0.538986 0.161334 4.848398
v 0.731969 0.046881 4.591747
v 12.245092 -20.800560 40.000065
v 12.141438 -21.432621 38.580662
v 11.831899 -22.053724 37.185493
v 11.321774 -22.653236 35.838448
v 10.619785 -23.220909 34.562557
v 9.737950 -23.747021 33.379669
v 8.691352 -24.222578 32.310013
v 7.497904 -24.639435 31.371885
v 6.178020 -24.990463 30.581347
v 4.754290 -25.269665 29.951929
v 3.251067 -25.472244 29.494387
v 1.694076 -25.594749 29.216562
v 0.109962 -25.635078 29.123198
v -1.474180 -25.592552 29.215899
v -3.031235 -25.467880 29.493078
v -4.534571 -25.263206 29.949987
v -5.958457 -24.982038 30.578814
v -7.278537 -24.629169 31.368803
v -8.472221 -24.210649 32.306431
v -9.519081 -23.733644 33.375645
v -10.401210 -23.206303 34.558167
v -11.103513 -22.637659 35.833763
v -11.613976 -22.037430 37.180603
v -11.923856 -21.415903 38.575634
v -12.027862 -20.783699 39.994999
v -11.924208 -20.151638 41.414410
v -11.614670 -19.530537 42.809566
v -11.104546 -18.931025 44.156616
v -10.402557 -18.363350 45.432499
v -9.520719 -17.837240 46.615398
v -8.474124 -17.361687 47.685055
v -7.280678 -16.944826 48.623177
v -5.960787 -16.593796 49.413712
v -4.537057 -16.314598 50.043137
v -3.033840 -16.112017 50.500675
v -1.476854 -15.989511 50.778503
v 0.107271 -15.949178 50.871864
v 1.691408 -15.991714 50.779163
v 3.248462 -16.116379 50.501991
v 4.751804 -16.321053 50.045078
v 6.175689 -16.602230 49.416248
v 7.495766 -16.955090 48.626270
v 8.689445 -17.373606 47.688641
v 9.736314 -17.850622 46.619415
v 10.618439 -18.377956 45.436890
v 11.320745 -18.946606 44.161304
v 11.831206 -19.546825 42.814457
v 12.141089 -20.168354 41.419430
v 7.460791 -20.947285 39.662159
v 7.400395 -21.266409 38.945488
v 6.502137 -22.173893 36.906239
v 5.976686 -22.443401 36.300156
v 3.828428 -23.087345 34.850445
v 2.960190 -23.233475 34.520798
v 0.109374 -23.425266 34.085106
v -0.864946 -23.402498 34.134499
v -3.610970 -23.080734 34.852123
v -4.412501 -22.896420 35.264572
v -6.288130 -22.162533 36.909126
v -6.705114 -21.872536 37.559540
v -7.251410 -20.934216 39.665482
v -7.191014 -20.615086 40.382153
v -6.292760 -19.707605 42.421391
v -5.767305 -19.438099 43.027477
v -3.619048 -18.794153 44.477184
v -2.750808 -18.648024 44.806835
v 0.100010 -18.456234 45.242527
v 1.074324 -18.479000 45.193130
v 3.820352 -18.800762 44.475502
v 4.621880 -18.985077 44.063061
v 6.497513 -19.718966 42.418507
v 6.914493 -20.008955 41.768097
v 6.918028 -21.884640 37.556465
v 4.629270 -22.904453 35.262535
v 1.083604 -23.404232 34.134064
v -2.742176 -23.228407 34.522087
v -5.761660 -22.432980 36.302807
v -7.189811 -21.253452 38.948776
v -6.708649 -19.996862 41.771168
v -4.419892 -18.977047 44.065098
v -0.874232 -18.477272 45.193569
v 2.951558 -18.653091 44.805546
v 5.971042 -19.448528 43.024822
v 7.399192 -20.628046 40.378860
v 7.218730 -21.580503 38.239895
v 5.349212 -22.688427 35.748878
v 2.039724 -23.339842 34.280327
v -1.821307 -23.336414 34.281197
v -5.133262 -22.679111 35.751244
v -7.006964 -21.567871 38.243111
v -7.009350 -20.300993 41.087738
v -5.139832 -19.193075 43.578754
v -1.830346 -18.541660 45.047302
v 2.030683 -18.545086 45.046432
v 5.342638 -19.202389 43.576393
v 7.216344 -20.313629 41.084526
vn 0.6266 -0.6200 0.4722
vn -0.9428 0.3320 0.0300
vn 0.7632 -0.4952 0.4150
vn -0.9811 0.1600 0.1092
vn 0.8703 -0.3487 0.3478
vn -0.9816 -0.0156 0.1901
vn 0.9438 -0.1861 0.2731
vn -0.9444 -0.1880 0.2696
vn 0.9810 -0.0138 0.1938
vn -0.8708 -0.3505 0.3446
vn 0.9804 0.1617 0.1129
vn -0.7636 -0.4969 0.4123
vn 0.9421 0.3336 0.0337
vn -0.6269 -0.6214 0.4699
vn 0.8678 0.4952 -0.0410
vn -0.4660 -0.7192 0.5154
vn -0.0963 0.9613 -0.2579
vn 0.7602 0.6406 -0.1082
vn -0.2870 -0.7866 0.5468
vn -0.2853 0.9272 -0.2426
vn 0.6237 0.7640 -0.1654
vn -0.0969 -0.8208 0.5630
vn -0.4635 0.8603 -0.2122
vn 0.4633 0.8609 -0.2104
vn 0.0969 -0.8205 0.5633
vn -0.6240 0.7632 -0.1679
vn 0.2852 0.9275 -0.2415
vn 0.2869 -0.7859 0.5478
vn -0.7607 0.6395 -0.1112
vn 0.0963 0.9615 -0.2575
vn 0.4658 -0.7181 0.5170
vn -0.8684 0.4939 -0.0444
vn -0.0000 -0.4346 -0.9006
vn -0.2069 0.8832 -0.4209
vn -0.3035 0.9411 0.1492
vn 0.1742 -0.0000 0.9847
vn 0.4114 -0.3617 0.8366
vn 0.6935 -0.6346 -0.3410
vn 0.3689 -0.0000 -0.9295
vn -0.7729 -0.5774 -0.2634
vn 0.4412 -0.0000 0.8974
vn 0.6346 0.7071 -0.3120
vn 0.8974 -0.0000 -0.4412
vn 0.3120 0.7071 0.6346
vn -0.0000 0.4346 0.9006
vn -0.6261 -0.5866 -0.5138
vn -0.5818 -0.6584 0.4775
vn 0.0542 0.4466 -0.8931
vn -0.5647 -0.4555 -0.6881
vn -0.6206 -0.7105 0.3317
vn 0.2024 0.4470 0.8713
vn -0.4553 -0.2591 -0.8518
vn -0.6456 -0.7382 0.1958
vn 0.0935 0.3001 0.9493
vn -0.2903 -0.0031 -0.9569
vn -0.6610 -0.7476 0.0651
vn -0.0979 0.0373 0.9945
vn -0.0945 0.2638 -0.9599
vn -0.6687 -0.7406 -0.0659
vn -0.2829 -0.2243 0.9326
vn -0.6682 -0.7159 -0.2027
vn -0.4254 -0.4309 0.7958
vn -0.6563 -0.6680 -0.3508
vn -0.5209 -0.5708 0.6347
vn 0.9940 0.0489 -0.0979
vn -0.0000 -1.0000 -0.0000
vn -0.9940 -0.0489 0.0979
vn -0.0000 1.0000 -0.0000
vn -0.0007 -0.9135 0.4068
vn 0.0007 0.9135 -0.4068
vn 0.9340 0.3468 -0.0860
vn -0.1261 -0.9004 -0.4164
vn 0.3851 -0.8437 -0.3739
vn 0.9410 -0.0481 -0.3350
vn -0.4768 -0.8085 -0.3451
vn 0.0407 -0.9060 -0.4212
vn 0.6367 -0.4978 -0.5888
vn -0.8426 -0.5199 -0.1404
vn -0.2971 -0.8704 -0.3926
vn 0.1784 -0.7006 -0.6909
vn 0.9608 0.2205 -0.1683
vn -0.6642 -0.6991 -0.2649
vn -0.2973 -0.6741 -0.6762
vn 0.8239 -0.2996 -0.4810
vn -0.9660 -0.2567 0.0313
vn -0.7363 -0.4108 -0.5377
vn 0.4139 -0.6304 -0.6567
vn -0.9257 0.2136 0.3122
vn -0.9647 0.0811 -0.2504
vn -0.0600 -0.7146 -0.6969
vn -0.5534 0.6374 0.5361
vn -0.8260 0.5601 0.0635
vn -0.5278 -0.5748 -0.6253
vn -0.1452 0.7837 0.6039
vn -0.9867 -0.1007 0.1280
vn -0.4933 0.8305 0.2586
vn -0.8934 -0.1842 -0.4098
vn 0.2453 0.7658 0.5945
vn -0.7600 0.4683 0.4507
vn -0.1333 0.9323 0.3362
vn -0.9360 0.3420 -0.0839
vn 0.6578 0.5662 0.4967
vn -0.3450 0.7359 0.5826
vn 0.2238 0.9189 0.3248
vn -0.6692 0.7214 0.1780
vn 0.9727 0.0670 0.2222
vn 0.0493 0.7929 0.6074
vn 0.5817 0.7831 0.2202
vn -0.3130 0.8979 0.3097
vn 0.8449 -0.5157 -0.1422
vn 0.4487 0.6956 0.5611
vn 0.8869 0.4619 -0.0088
vn 0.0452 0.9390 0.3410
vn 0.4768 -0.8076 -0.3470
vn 0.8506 0.3569 0.3862
vn 0.9637 0.0870 -0.2525
vn 0.4034 0.8693 0.2858
vn 0.1244 -0.9004 -0.4170
vn 0.9677 -0.2502 0.0298
vn 0.7368 -0.4067 -0.5401
vn 0.7497 0.6503 0.1228
vn -0.2107 -0.8888 -0.4070
vn 0.6655 -0.6970 -0.2670
vn 0.2969 -0.6729 -0.6776
vn 0.8935 -0.1787 -0.4121
vn -0.5700 -0.7610 -0.3098
vn 0.2960 -0.8702 -0.3939
vn -0.1790 -0.7013 -0.6900
vn 0.5280 -0.5723 -0.6274
vn -0.9153 -0.3984 -0.0596
vn -0.0425 -0.9061 -0.4210
vn -0.6364 -0.5011 -0.5865
vn 0.0593 -0.7144 -0.6972
vn -0.9728 0.0599 0.2238
vn -0.3857 -0.8442 -0.3723
vn -0.9415 -0.0539 -0.3328
vn -0.4141 -0.6322 -0.6549
vn -0.6585 0.5631 0.4993
vn -0.7566 -0.6197 -0.2088
vn -0.8890 0.4579 -0.0066
vn -0.8236 -0.3045 -0.4786
vn -0.2441 0.7652 0.5958
vn -0.8518 0.3515 0.3885
vn -0.5825 0.7819 0.2223
vn -0.9624 0.2150 -0.1663
vn 0.1467 0.7841 0.6031
vn -0.4483 0.6941 0.5632
vn -0.2230 0.9188 0.3258
vn -0.7514 0.6479 0.1251
vn 0.5532 0.6397 0.5337
vn -0.0477 0.7928 0.6076
vn 0.1344 0.9324 0.3356
vn -0.4032 0.8688 0.2875
vn 0.9248 0.2201 0.3103
vn 0.3459 0.7369 0.5808
vn 0.4930 0.8313 0.2566
vn -0.0440 0.9390 0.3412
vn 0.9175 -0.3929 -0.0613
vn 0.7589 0.4725 0.4482
vn 0.8239 0.5634 0.0612
vn 0.3135 0.8981 0.3083
vn 0.5706 -0.7597 -0.3119
vn 0.9875 -0.0935 0.1265
vn 0.6679 0.7232 0.1757
vn 0.2093 -0.8887 -0.4080
vn 0.7585 -0.6166 -0.2108
vt 0.000000 0.000000
s 0
usemtl Material
f 21/1/1 20/1/1 52/1/1 53/1/1
f 8/1/2 7/1/2 39/1/2 40/1/2
f 22/1/3 21/1/3 53/1/3 54/1/3
f 9/1/4 8/1/4 40/1/4 41/1/4
f 23/1/5 22/1/5 54/1/5 55/1/5
f 10/1/6 9/1/6 41/1/6 42/1/6
f 24/1/7 23/1/7 55/1/7 56/1/7
f 11/1/8 10/1/8 42/1/8 43/1/8
f 25/1/9 24/1/9 56/1/9 57/1/9
f 12/1/10 11/1/10 43/1/10 44/1/10
f 26/1/11 25/1/11 57/1/11 58/1/11
f 13/1/12 12/1/12 44/1/12 45/1/12
f 27/1/13 26/1/13 58/1/13 59/1/13
f 14/1/14 13/1/14 45/1/14 46/1/14
f 28/1/15 27/1/15 59/1/15 60/1/15
f 15/1/16 14/1/16 46/1/16 47/1/16
f 2/1/17 1/1/17 33/1/17 34/1/17
f 29/1/18 28/1/18 60/1/18 61/1/18
f 16/1/19 15/1/19 47/1/19 48/1/19
f 3/1/20 2/1/20 34/1/20 35/1/20
f 30/1/21 29/1/21 61/1/21 62/1/21
f 17/1/22 16/1/22 48/1/22 49/1/22
f 4/1/23 3/1/23 35/1/23 36/1/23
f 31/1/24 30/1/24 62/1/24 63/1/24
f 18/1/25 17/1/25 49/1/25 50/1/25
f 5/1/26 4/1/26 36/1/26 37/1/26
f 32/1/27 31/1/27 63/1/27 64/1/27
f 19/1/28 18/1/28 50/1/28 51/1/28
f 6/1/29 5/1/29 37/1/29 38/1/29
f 1/1/30 32/1/30 64/1/30 33/1/30
f 20/1/31 19/1/31 51/1/31 52/1/31
f 7/1/32 6/1/32 38/1/32 39/1/32
f 34/1/33 33/1/33 64/1/33 63/1/33 62/1/33 61/1/33 60/1/33 59/1/33 58/1/33 57/1/33 56/1/33 55/1/33 54/1/33 53/1/33 52/1/33 51/1/33 50/1/33 49/1/33 48/1/33 47/1/33 46/1/33 45/1/33 44/1/33 43/1/33 42/1/33 41/1/33 40/1/33 39/1/33 38/1/33 37/1/33 36/1/33 35/1/33
f 71/1/34 74/1/34 68/1/34 65/1/34
f 74/1/35 75/1/35 69/1/35 68/1/35
f 75/1/36 76/1/36 70/1/36 69/1/36
f 73/1/37 67/1/37 70/1/37 76/1/37
f 72/1/38 66/1/38 67/1/38 73/1/38
f 71/1/39 65/1/39 66/1/39 72/1/39
f 74/1/40 71/1/40 72/1/40 73/1/40 76/1/40 75/1/40
f 68/1/41 66/1/41 65/1/41
f 66/1/42 68/1/42 67/1/42
f 69/1/43 70/1/43 68/1/43
f 70/1/44 67/1/44 68/1/44
f 2/1/45 3/1/45 4/1/45 5/1/45 6/1/45 7/1/45 8/1/45 9/1/45 10/1/45 11/1/45 12/1/45 13/1/45 14/1/45 15/1/45 16/1/45 17/1/45 18/1/45 19/1/45 20/1/45 21/1/45 22/1/45 23/1/45 24/1/45 25/1/45 26/1/45 27/1/45 28/1/45 29/1/45 30/1/45 31/1/45 32/1/45 1/1/45
f 90/1/46 91/1/46 110/1/46 109/1/46
f 83/1/47 84/1/47 103/1/47 102/1/47
f 77/1/48 95/1/48 114/1/48 96/1/48
f 91/1/49 92/1/49 111/1/49 110/1/49
f 84/1/50 85/1/50 104/1/50 103/1/50
f 95/1/51 78/1/51 97/1/51 114/1/51
f 92/1/52 93/1/52 112/1/52 111/1/52
f 85/1/53 86/1/53 105/1/53 104/1/53
f 78/1/54 79/1/54 98/1/54 97/1/54
f 93/1/55 94/1/55 113/1/55 112/1/55
f 86/1/56 87/1/56 106/1/56 105/1/56
f 79/1/57 80/1/57 99/1/57 98/1/57
f 94/1/58 77/1/58 96/1/58 113/1/58
f 87/1/59 88/1/59 107/1/59 106/1/59
f 80/1/60 81/1/60 100/1/60 99/1/60
f 88/1/61 89/1/61 108/1/61 107/1/61
f 81/1/62 82/1/62 101/1/62 100/1/62
f 89/1/63 90/1/63 109/1/63 108/1/63
f 82/1/64 83/1/64 102/1/64 101/1/64
f 114/1/65 97/1/65 96/1/65
f 97/1/66 98/1/66 99/1/66 100/1/66 101/1/66 102/1/66 103/1/66 104/1/66 105/1/66 106/1/66 107/1/66 108/1/66 109/1/66 110/1/66 111/1/66 112/1/66 113/1/66 96/1/66
f 95/1/67 77/1/67 78/1/67
f 78/1/68 77/1/68 94/1/68 93/1/68 92/1/68 91/1/68 90/1/68 89/1/68 88/1/68 87/1/68 86/1/68 85/1/68 84/1/68 83/1/68 82/1/68 81/1/68 80/1/68 79/1/68
f 259/1/69 260/1/69 212/1/69 211/1/69
f 163/1/70 115/1/70 116/1/70 164/1/70
f 165/1/70 119/1/70 120/1/70 166/1/70
f 167/1/70 123/1/70 124/1/70 168/1/70
f 169/1/70 127/1/70 128/1/70 170/1/70
f 171/1/70 131/1/70 132/1/70 172/1/70
f 173/1/70 135/1/70 136/1/70 174/1/70
f 175/1/70 139/1/70 140/1/70 176/1/70
f 177/1/70 143/1/70 144/1/70 178/1/70
f 179/1/70 147/1/70 148/1/70 180/1/70
f 181/1/70 151/1/70 152/1/70 182/1/70
f 183/1/70 155/1/70 156/1/70 184/1/70
f 185/1/70 159/1/70 160/1/70 186/1/70
f 187/1/70 118/1/70 119/1/70 165/1/70
f 188/1/70 122/1/70 123/1/70 167/1/70
f 189/1/70 126/1/70 127/1/70 169/1/70
f 190/1/70 130/1/70 131/1/70 171/1/70
f 191/1/70 134/1/70 135/1/70 173/1/70
f 192/1/70 138/1/70 139/1/70 175/1/70
f 193/1/70 142/1/70 143/1/70 177/1/70
f 194/1/70 146/1/70 147/1/70 179/1/70
f 195/1/70 150/1/70 151/1/70 181/1/70
f 196/1/70 154/1/70 155/1/70 183/1/70
f 197/1/70 158/1/70 159/1/70 185/1/70
f 198/1/70 162/1/70 115/1/70 163/1/70
f 199/1/70 117/1/70 118/1/70 187/1/70
f 200/1/70 121/1/70 122/1/70 188/1/70
f 201/1/70 125/1/70 126/1/70 189/1/70
f 202/1/70 129/1/70 130/1/70 190/1/70
f 203/1/70 133/1/70 134/1/70 191/1/70
f 204/1/70 137/1/70 138/1/70 192/1/70
f 205/1/70 141/1/70 142/1/70 193/1/70
f 206/1/70 145/1/70 146/1/70 194/1/70
f 207/1/70 149/1/70 150/1/70 195/1/70
f 208/1/70 153/1/70 154/1/70 196/1/70
f 209/1/70 157/1/70 158/1/70 197/1/70
f 210/1/70 161/1/70 162/1/70 198/1/70
f 164/1/70 116/1/70 117/1/70 199/1/70
f 166/1/70 120/1/70 121/1/70 200/1/70
f 168/1/70 124/1/70 125/1/70 201/1/70
f 170/1/70 128/1/70 129/1/70 202/1/70
f 172/1/70 132/1/70 133/1/70 203/1/70
f 174/1/70 136/1/70 137/1/70 204/1/70
f 176/1/70 140/1/70 141/1/70 205/1/70
f 178/1/70 144/1/70 145/1/70 206/1/70
f 180/1/70 148/1/70 149/1/70 207/1/70
f 182/1/70 152/1/70 153/1/70 208/1/70
f 184/1/70 156/1/70 157/1/70 209/1/70
f 186/1/70 160/1/70 161/1/70 210/1/70
f 261/1/69 262/1/69 216/1/69 215/1/69
f 263/1/69 264/1/69 220/1/69 219/1/69
f 265/1/69 266/1/69 224/1/69 223/1/69
f 267/1/69 268/1/69 228/1/69 227/1/69
f 269/1/69 270/1/69 232/1/69 231/1/69
f 271/1/69 272/1/69 236/1/69 235/1/69
f 273/1/69 274/1/69 240/1/69 239/1/69
f 275/1/69 276/1/69 244/1/69 243/1/69
f 277/1/69 278/1/69 248/1/69 247/1/69
f 279/1/69 280/1/69 252/1/69 251/1/69
f 281/1/69 282/1/69 256/1/69 255/1/69
f 283/1/69 261/1/69 215/1/69 214/1/69
f 284/1/69 263/1/69 219/1/69 218/1/69
f 285/1/69 265/1/69 223/1/69 222/1/69
f 286/1/69 267/1/69 227/1/69 226/1/69
f 287/1/69 269/1/69 231/1/69 230/1/69
f 288/1/69 271/1/69 235/1/69 234/1/69
f 289/1/69 273/1/69 239/1/69 238/1/69
f 290/1/69 275/1/69 243/1/69 242/1/69
f 291/1/69 277/1/69 247/1/69 246/1/69
f 292/1/69 279/1/69 251/1/69 250/1/69
f 293/1/69 281/1/69 255/1/69 254/1/69
f 294/1/69 259/1/69 211/1/69 258/1/69
f 295/1/69 283/1/69 214/1/69 213/1/69
f 296/1/69 284/1/69 218/1/69 217/1/69
f 297/1/69 285/1/69 222/1/69 221/1/69
f 298/1/69 286/1/69 226/1/69 225/1/69
f 299/1/69 287/1/69 230/1/69 229/1/69
f 300/1/69 288/1/69 234/1/69 233/1/69
f 301/1/69 289/1/69 238/1/69 237/1/69
f 302/1/69 290/1/69 242/1/69 241/1/69
f 303/1/69 291/1/69 246/1/69 245/1/69
f 304/1/69 292/1/69 250/1/69 249/1/69
f 305/1/69 293/1/69 254/1/69 253/1/69
f 306/1/69 294/1/69 258/1/69 257/1/69
f 260/1/69 295/1/69 213/1/69 212/1/69
f 262/1/69 296/1/69 217/1/69 216/1/69
f 264/1/69 297/1/69 221/1/69 220/1/69
f 266/1/69 298/1/69 225/1/69 224/1/69
f 268/1/69 299/1/69 229/1/69 228/1/69
f 270/1/69 300/1/69 233/1/69 232/1/69
f 272/1/69 301/1/69 237/1/69 236/1/69
f 274/1/69 302/1/69 241/1/69 240/1/69
f 276/1/69 303/1/69 245/1/69 244/1/69
f 278/1/69 304/1/69 249/1/69 248/1/69
f 280/1/69 305/1/69 253/1/69 252/1/69
f 282/1/69 306/1/69 257/1/69 256/1/69
f 115/1/71 162/1/71 258/1/71 211/1/71
f 182/1/72 208/1/72 304/1/72 278/1/72
f 194/1/73 179/1/73 275/1/73 290/1/73
f 118/1/74 117/1/74 213/1/74 214/1/74
f 184/1/75 209/1/75 305/1/75 280/1/75
f 195/1/76 181/1/76 277/1/76 291/1/76
f 122/1/77 121/1/77 217/1/77 218/1/77
f 186/1/78 210/1/78 306/1/78 282/1/78
f 196/1/79 183/1/79 279/1/79 292/1/79
f 126/1/80 125/1/80 221/1/80 222/1/80
f 116/1/81 115/1/81 211/1/81 212/1/81
f 197/1/82 185/1/82 281/1/82 293/1/82
f 130/1/83 129/1/83 225/1/83 226/1/83
f 120/1/84 119/1/84 215/1/84 216/1/84
f 198/1/85 163/1/85 259/1/85 294/1/85
f 134/1/86 133/1/86 229/1/86 230/1/86
f 124/1/87 123/1/87 219/1/87 220/1/87
f 199/1/88 187/1/88 283/1/88 295/1/88
f 138/1/89 137/1/89 233/1/89 234/1/89
f 128/1/90 127/1/90 223/1/90 224/1/90
f 200/1/91 188/1/91 284/1/91 296/1/91
f 142/1/92 141/1/92 237/1/92 238/1/92
f 132/1/93 131/1/93 227/1/93 228/1/93
f 201/1/94 189/1/94 285/1/94 297/1/94
f 163/1/95 164/1/95 260/1/95 259/1/95
f 146/1/96 145/1/96 241/1/96 242/1/96
f 136/1/97 135/1/97 231/1/97 232/1/97
f 202/1/98 190/1/98 286/1/98 298/1/98
f 165/1/99 166/1/99 262/1/99 261/1/99
f 150/1/100 149/1/100 245/1/100 246/1/100
f 140/1/101 139/1/101 235/1/101 236/1/101
f 203/1/102 191/1/102 287/1/102 299/1/102
f 167/1/103 168/1/103 264/1/103 263/1/103
f 154/1/104 153/1/104 249/1/104 250/1/104
f 144/1/105 143/1/105 239/1/105 240/1/105
f 204/1/106 192/1/106 288/1/106 300/1/106
f 169/1/107 170/1/107 266/1/107 265/1/107
f 158/1/108 157/1/108 253/1/108 254/1/108
f 148/1/109 147/1/109 243/1/109 244/1/109
f 205/1/110 193/1/110 289/1/110 301/1/110
f 171/1/111 172/1/111 268/1/111 267/1/111
f 162/1/112 161/1/112 257/1/112 258/1/112
f 152/1/113 151/1/113 247/1/113 248/1/113
f 206/1/114 194/1/114 290/1/114 302/1/114
f 173/1/115 174/1/115 270/1/115 269/1/115
f 117/1/116 116/1/116 212/1/116 213/1/116
f 156/1/117 155/1/117 251/1/117 252/1/117
f 207/1/118 195/1/118 291/1/118 303/1/118
f 175/1/119 176/1/119 272/1/119 271/1/119
f 121/1/120 120/1/120 216/1/120 217/1/120
f 160/1/121 159/1/121 255/1/121 256/1/121
f 208/1/122 196/1/122 292/1/122 304/1/122
f 177/1/123 178/1/123 274/1/123 273/1/123
f 125/1/124 124/1/124 220/1/124 221/1/124
f 119/1/125 118/1/125 214/1/125 215/1/125
f 209/1/126 197/1/126 293/1/126 305/1/126
f 179/1/127 180/1/127 276/1/127 275/1/127
f 129/1/128 128/1/128 224/1/128 225/1/128
f 123/1/129 122/1/129 218/1/129 219/1/129
f 210/1/130 198/1/130 294/1/130 306/1/130
f 181/1/131 182/1/131 278/1/131 277/1/131
f 133/1/132 132/1/132 228/1/132 229/1/132
f 127/1/133 126/1/133 222/1/133 223/1/133
f 164/1/134 199/1/134 295/1/134 260/1/134
f 183/1/135 184/1/135 280/1/135 279/1/135
f 137/1/136 136/1/136 232/1/136 233/1/136
f 131/1/137 130/1/137 226/1/137 227/1/137
f 166/1/138 200/1/138 296/1/138 262/1/138
f 185/1/139 186/1/139 282/1/139 281/1/139
f 141/1/140 140/1/140 236/1/140 237/1/140
f 135/1/141 134/1/141 230/1/141 231/1/141
f 168/1/142 201/1/142 297/1/142 264/1/142
f 187/1/143 165/1/143 261/1/143 283/1/143
f 145/1/144 144/1/144 240/1/144 241/1/144
f 139/1/145 138/1/145 234/1/145 235/1/145
f 170/1/146 202/1/146 298/1/146 266/1/146
f 188/1/147 167/1/147 263/1/147 284/1/147
f 149/1/148 148/1/148 244/1/148 245/1/148
f 143/1/149 142/1/149 238/1/149 239/1/149
f 172/1/150 203/1/150 299/1/150 268/1/150
f 189/1/151 169/1/151 265/1/151 285/1/151
f 153/1/152 152/1/152 248/1/152 249/1/152
f 147/1/153 146/1/153 242/1/153 243/1/153
f 174/1/154 204/1/154 300/1/154 270/1/154
f 190/1/155 171/1/155 267/1/155 286/1/155
f 157/1/156 156/1/156 252/1/156 253/1/156
f 151/1/157 150/1/157 246/1/157 247/1/157
f 176/1/158 205/1/158 301/1/158 272/1/158
f 191/1/159 173/1/159 269/1/159 287/1/159
f 161/1/160 160/1/160 256/1/160 257/1/160
f 155/1/161 154/1/161 250/1/161 251/1/161
f 178/1/162 206/1/162 302/1/162 274/1/162
f 192/1/163 175/1/163 271/1/163 288/1/163
f 159/1/164 158/1/164 254/1/164 255/1/164
f 180/1/165 207/1/165 303/1/165 276/1/165
f 193/1/166 177/1/166 273/1/166 289/1/166
